# xmcd CD database file
#
# Track frame offsets:
#	150
#	29242
#	59913
#	86009
#	108455
#	131965
#	151134
#	175171
#	185400
#
# Disc length: 2777 seconds
#
# Revision: 0
# Processed by: cddbd v1.5.2PL0 Copyright (c) Steve Scherf et al.
# Submitted via: CDex 2.05
#
DISCID=830ad709
DTITLE=Chris Minh Doky - Transparency
DYEAR=2018
DGENRE=Jazz
TTITLE0=Brother
TTITLE1=Daughter
TTITLE2=Son
TTITLE3=Father
TTITLE4=Psalm
TTITLE5=Woman
TTITLE6=Man
TTITLE7=Sister
TTITLE8=Mother
EXTD=YEAR: 2018
EXTT0=
EXTT1=
EXTT2=
EXTT3=
EXTT4=
EXTT5=
EXTT6=
EXTT7=
EXTT8=
PLAYORDER=
